<svg xmlns="http://www.w3.org/2000/svg" width="91.834" height="91.834" viewBox="0 0 91.834 91.834"><defs><style>.a{fill:#cdcfce;}</style></defs><g transform="translate(0 0)"><path class="a" d="M48.293,136.293v-2.962A13.345,13.345,0,0,1,34.962,120H32A16.313,16.313,0,0,0,48.293,136.293Zm0,0" transform="translate(-26.075 -97.782)"/><path class="a" d="M74.368,84.737A10.368,10.368,0,1,0,64,74.368,10.382,10.382,0,0,0,74.368,84.737Zm0-17.774a7.406,7.406,0,1,1-7.406,7.406A7.415,7.415,0,0,1,74.368,66.962Zm0,0" transform="translate(-52.151 -52.15)"/><path class="a" d="M100.444,104.887A4.444,4.444,0,1,0,96,100.444,4.449,4.449,0,0,0,100.444,104.887Zm0-5.925a1.481,1.481,0,1,1-1.481,1.481A1.482,1.482,0,0,1,100.444,98.962Zm0,0" transform="translate(-78.226 -78.226)"/><path class="a" d="M91.834,70.668V59.678l-4.008-1.4a23.662,23.662,0,0,0-1.76-4.254l1.846-3.819-1.431-1.431a33.926,33.926,0,0,0-2.572-2.849c-1.023-1.035-2.2-2.158-3.005-2.86L71.049,34.45l.846-2.537,3.429,1.716,5.7-5.7L79.309,24.5l3.638-1.213v-8.06l-3.638-1.211,1.716-3.429-5.7-5.7L71.9,6.6,70.684,2.963h-8.06L61.413,6.6,57.984,4.885l-5.7,5.7L54,14.014,50.36,15.225v1.13L38.169,5.694A23,23,0,0,0,23.015,0V.04c-.267-.009-.527-.04-.8-.04A22.243,22.243,0,0,0,0,22.218c0,.27.031.53.04.8H0A23,23,0,0,0,5.694,38.168L16.362,50.361H15.225L14.013,54l-3.429-1.716-5.7,5.7L6.6,61.412,2.962,62.623v8.06L6.6,71.895,4.885,75.323l5.7,5.7,3.429-1.716,1.211,3.639h8.06L24.5,79.309l3.429,1.716,5.7-5.7L31.909,71.9l2.554-.851,8.6,9.827c.674.769,1.684,1.839,2.635,2.8a35.073,35.073,0,0,0,3.07,2.808L50.2,87.914l3.819-1.846a23.76,23.76,0,0,0,4.253,1.76l1.4,4.007h10.99l1.4-4.008a23.662,23.662,0,0,0,4.254-1.76l3.819,1.846,7.773-7.773L86.066,76.32a23.767,23.767,0,0,0,1.76-4.254ZM44.279,54.025a23.767,23.767,0,0,0-1.76,4.254l-4.008,1.4v10.99l4.008,1.4a23.662,23.662,0,0,0,1.76,4.254l-.449.929L13.588,42.691a22.218,22.218,0,0,0,29.1-29.108L77.268,43.821l-.947.458a23.745,23.745,0,0,0-4.254-1.76l-1.4-4.008H59.677l-1.4,4.008a23.662,23.662,0,0,0-4.254,1.76l-3.819-1.846-7.773,7.773Zm9.044-36.664,3.4-1.133.249-.656c.073-.192.148-.377.229-.561l.287-.641-1.6-3.2,2.68-2.68,3.2,1.6L62.41,9.8c.184-.082.369-.155.561-.229l.656-.249,1.133-3.4h3.79l1.133,3.4.656.249c.192.073.377.148.561.229l.641.287,3.2-1.6,2.68,2.68-1.6,3.2.287.641c.082.184.155.369.229.561l.249.656,3.4,1.133v3.79l-3.4,1.133-.249.656c-.073.192-.148.377-.229.561l-.287.641,1.6,3.2-2.68,2.68-3.2-1.6-.641.287c-.184.082-.369.155-.561.229l-.656.249-1.049,3.149-15.31-13.39ZM22.218,2.963A19.256,19.256,0,1,1,2.962,22.218,19.278,19.278,0,0,1,22.218,2.963Zm6.968,66.719-.249.656c-.073.192-.148.377-.229.561l-.287.641,1.6,3.2-2.68,2.68-3.2-1.6-.641.287c-.184.082-.369.156-.561.229l-.656.249-1.133,3.4H17.36l-1.133-3.4-.656-.249c-.192-.073-.377-.148-.561-.229l-.641-.287-3.2,1.6-2.68-2.68,1.6-3.2L9.8,70.9c-.082-.184-.155-.369-.229-.561l-.249-.656-3.4-1.133v-3.79l3.4-1.133.249-.656c.073-.192.148-.377.229-.561l.287-.641-1.6-3.2,2.68-2.68,3.2,1.6.641-.287c.184-.082.369-.155.561-.229l.656-.249,1.133-3.4h1.595L32.349,68.629Zm56.2.1-.2.757a20.612,20.612,0,0,1-2.064,4.993l-.394.68,1.6,3.32-4.8,4.8-3.32-1.6-.68.394a20.751,20.751,0,0,1-4.993,2.064l-.757.2-1.216,3.487H61.78l-1.216-3.487-.757-.2a20.613,20.613,0,0,1-4.993-2.064l-.68-.394-3.32,1.6-4.8-4.8,1.6-3.32-.394-.68a20.751,20.751,0,0,1-2.064-4.993l-.2-.757-3.487-1.216V61.781l3.487-1.216.2-.757a20.612,20.612,0,0,1,2.064-4.993l.394-.68-1.6-3.32,4.8-4.8,3.32,1.6.68-.394a20.751,20.751,0,0,1,4.993-2.064l.757-.2,1.216-3.487h6.784l1.216,3.487.757.2a20.612,20.612,0,0,1,4.993,2.064l.68.394,3.32-1.6,4.8,4.8-1.6,3.32.394.68a20.751,20.751,0,0,1,2.064,4.993l.2.757,3.487,1.216v6.784Zm0,0"/><path class="a" d="M286.812,272a14.812,14.812,0,1,0,14.812,14.812A14.828,14.828,0,0,0,286.812,272Zm0,26.661a11.85,11.85,0,1,1,11.85-11.85A11.863,11.863,0,0,1,286.812,298.661Zm0,0" transform="translate(-221.64 -221.639)"/><path class="a" d="M312.887,304a8.887,8.887,0,1,0,8.887,8.887A8.9,8.9,0,0,0,312.887,304Zm0,14.812a5.925,5.925,0,1,1,5.925-5.925A5.931,5.931,0,0,1,312.887,318.812Zm0,0" transform="translate(-247.715 -247.714)"/><path class="a" d="M334.812,71.406a7.406,7.406,0,1,0-7.406,7.406A7.415,7.415,0,0,0,334.812,71.406Zm-11.85,0a4.444,4.444,0,1,1,4.444,4.444A4.449,4.449,0,0,1,322.962,71.406Zm0,0" transform="translate(-260.752 -52.15)"/><path class="a" d="M64,327.406A7.406,7.406,0,1,0,71.406,320,7.415,7.415,0,0,0,64,327.406Zm11.85,0a4.444,4.444,0,1,1-4.444-4.444A4.449,4.449,0,0,1,75.85,327.406Zm0,0" transform="translate(-52.151 -260.752)"/></g></svg>