<svg xmlns="http://www.w3.org/2000/svg" width="170.163" height="50.239" viewBox="0 0 170.163 50.239"><defs><style>.a{fill:#d6222b;fill-rule:evenodd;}.b{fill:#fff;}</style></defs><g transform="translate(-28.65 -33.43)"><path class="a" d="M213.624,33.43l-3.214,15.932-20.461-.011c-.006,0,23.527-15.921,23.674-15.921" transform="translate(-69.879)"/><path class="a" d="M161.939,102.937l-1.9,10.672-71.17.108,17.094-10.927Z" transform="translate(-26.089 -30.048)"/><path class="b" d="M181.09,64.287h17.723l-.935,3.945h-6.189l-3.6,15.218h-5.345l3.6-15.218h-6.189Zm-13.308,3.945-.992,4.183h2.142a1.294,1.294,0,0,0,.249.028h.255a5.816,5.816,0,0,0,1.955-.448,2.184,2.184,0,0,0,1.23-1.644,1.355,1.355,0,0,0-.493-1.587,3.587,3.587,0,0,0-2.023-.5Zm-4.631-3.945h8.768a1.294,1.294,0,0,0,.249.028h.261a11.735,11.735,0,0,1,4.829,1.032q2.074.978,1.366,3.973a5.328,5.328,0,0,1-2.188,3.4,9.2,9.2,0,0,1-3.639,1.389c1.921.068,2.97.708,3.146,1.9a14.176,14.176,0,0,1-.017,3.916.6.6,0,0,0-.023.108.342.342,0,0,0,0,.108c-.085.584-.153,1.162-.21,1.734a6.577,6.577,0,0,0,.023,1.576h-5.974a3.447,3.447,0,0,1-.011-1.168c.062-.459.136-.935.215-1.428.023-.108.045-.21.057-.306s.034-.2.057-.306a10.673,10.673,0,0,0,.125-2.806c-.091-.844-.669-1.27-1.734-1.27l-2.545-.028-1.729,7.306h-5.566Zm-19.588,9.584a7.527,7.527,0,0,0,.13,4.313,2.913,2.913,0,0,0,3.078,1.961,4.7,4.7,0,0,0,3.559-1.564,10.163,10.163,0,0,0,2.21-4.687,8.109,8.109,0,0,0-.006-4.381c-.4-1.247-1.406-1.865-3.021-1.865a4.493,4.493,0,0,0-3.814,1.944,14.309,14.309,0,0,0-2.148,4.3Zm-5.832.21a18.2,18.2,0,0,1,3.786-7.039q2.7-3.154,9.108-3.151h.6a9.809,9.809,0,0,1,5.991,2.142q2.465,2.015,1.083,7.861c-.119.51-.278,1.049-.465,1.615a14.007,14.007,0,0,1-.708,1.723,13.792,13.792,0,0,1-3.814,4.58q-2.568,2.066-7.209,2.063-6.164,0-7.6-2.857a10.177,10.177,0,0,1-.89-6.325,2.188,2.188,0,0,0,.051-.278c.017-.1.034-.2.057-.306Zm-11.783-6.059-1.134,4.789h2.55a4.167,4.167,0,0,0,2.562-.674,3.026,3.026,0,0,0,1.224-1.785,1.455,1.455,0,0,0-.6-1.774,4.931,4.931,0,0,0-2.494-.527Zm-4.682-3.735h9.607q4.013.026,5.39,1.547t.669,4.512a6.983,6.983,0,0,1-2.777,4.449,10.258,10.258,0,0,1-4.211,1.666,8.2,8.2,0,0,1-.9.108c-.295.017-.584.028-.873.028l-4.256-.028-1.632,6.881h-5.566Zm-20.019,9.584a7.527,7.527,0,0,0,.13,4.313,2.913,2.913,0,0,0,3.078,1.961,4.7,4.7,0,0,0,3.559-1.564,10.163,10.163,0,0,0,2.21-4.687,8.109,8.109,0,0,0-.006-4.381c-.4-1.247-1.406-1.865-3.021-1.865a4.493,4.493,0,0,0-3.814,1.944,14.309,14.309,0,0,0-2.148,4.3Zm-5.832.21A18.2,18.2,0,0,1,99.2,67.041q2.7-3.154,9.108-3.151h.6a9.809,9.809,0,0,1,5.991,2.142q2.465,2.015,1.083,7.861c-.119.51-.278,1.049-.465,1.615a14,14,0,0,1-.708,1.723,13.792,13.792,0,0,1-3.814,4.58q-2.567,2.066-7.209,2.063-6.164,0-7.6-2.857a10.177,10.177,0,0,1-.89-6.325,2.184,2.184,0,0,0,.051-.278c.011-.1.034-.2.057-.306Zm-16.68-9.794H96.459l-.935,3.945H89.335l-3.6,15.218H80.385l3.6-15.218H77.8Zm-20.954,0h5.566l-2.664,11.25a5.169,5.169,0,0,0,.1,3.321q.578,1.284,2.641,1.287a4.467,4.467,0,0,0,3.554-1.309,8.072,8.072,0,0,0,1.655-3.48l2.624-11.063H76.82L74.009,76.149a10.132,10.132,0,0,1-3.6,5.7q-2.78,2.236-7.912,2.239-4.319,0-6.331-2.21a5.709,5.709,0,0,1-1.236-5.492ZM43.67,75.962l-.5-7.731-4.41,7.731ZM41.091,64.287h6.626l3.168,19.163H44.69L44.225,79.9h-7.68l-2.114,3.548H28.65Z" transform="translate(0 -13.196)"/></g></svg>