<svg xmlns="http://www.w3.org/2000/svg" width="252.648" height="74.592" viewBox="0 0 252.648 74.592"><defs><style>.a{fill:#d6222b;fill-rule:evenodd;}.b{fill:#6d6e70;}</style></defs><g transform="translate(-28.65 -33.43)"><path class="a" d="M225.1,33.43l-4.771,23.655-30.379-.017c-.008,0,34.931-23.638,35.15-23.638" transform="translate(-25.564)"/><path class="a" d="M197.358,103.009l-2.819,15.846-105.669.16,25.38-16.224Z" transform="translate(-9.544 -10.993)"/><path class="b" d="M254.984,64.479H281.3l-1.388,5.857H270.72l-5.352,22.595h-7.935l5.352-22.595H253.6Zm-19.759,5.857-1.473,6.21h3.181a1.924,1.924,0,0,0,.37.042h.379a8.635,8.635,0,0,0,2.9-.665,3.243,3.243,0,0,0,1.826-2.44,2.012,2.012,0,0,0-.732-2.356,5.326,5.326,0,0,0-3-.749Zm-6.875-5.857h13.018a1.921,1.921,0,0,0,.37.042h.387a17.422,17.422,0,0,1,7.17,1.532q3.08,1.452,2.028,5.9A7.91,7.91,0,0,1,248.075,77a13.652,13.652,0,0,1-5.4,2.062c2.853.1,4.41,1.052,4.67,2.827a21.048,21.048,0,0,1-.025,5.815.892.892,0,0,0-.034.16.507.507,0,0,0,0,.16c-.126.867-.227,1.725-.311,2.575a9.764,9.764,0,0,0,.034,2.339h-8.87a5.117,5.117,0,0,1-.017-1.734c.093-.682.2-1.388.32-2.121.034-.16.067-.311.084-.454s.05-.295.084-.454a15.846,15.846,0,0,0,.185-4.165c-.135-1.254-.993-1.885-2.575-1.885l-3.778-.042-2.567,10.847h-8.264Zm-29.083,14.23a11.176,11.176,0,0,0,.194,6.4c.682,1.935,2.2,2.912,4.569,2.912a6.984,6.984,0,0,0,5.285-2.323,15.089,15.089,0,0,0,3.282-6.959,12.039,12.039,0,0,0-.008-6.5c-.6-1.851-2.087-2.769-4.485-2.769a6.671,6.671,0,0,0-5.663,2.886,21.246,21.246,0,0,0-3.189,6.387Zm-8.659.311a27.019,27.019,0,0,1,5.621-10.452q4.014-4.683,13.523-4.679h.884a14.564,14.564,0,0,1,8.895,3.181q3.661,2.992,1.607,11.672c-.177.757-.412,1.557-.69,2.4A20.794,20.794,0,0,1,219.4,83.7a20.478,20.478,0,0,1-5.663,6.8q-3.812,3.067-10.7,3.063-9.151,0-11.285-4.241a15.11,15.11,0,0,1-1.321-9.391,3.251,3.251,0,0,0,.076-.412c.025-.143.05-.295.084-.454Zm-17.5-9-1.683,7.111h3.787a6.188,6.188,0,0,0,3.8-1,4.492,4.492,0,0,0,1.818-2.651,2.16,2.16,0,0,0-.884-2.634,7.321,7.321,0,0,0-3.7-.783Zm-6.951-5.546h14.264q5.958.038,8,2.3t.993,6.7a10.368,10.368,0,0,1-4.123,6.606,15.231,15.231,0,0,1-6.252,2.474,12.178,12.178,0,0,1-1.33.16c-.438.025-.867.042-1.3.042l-6.32-.042-2.424,10.216h-8.264ZM136.44,78.709a11.176,11.176,0,0,0,.194,6.4c.682,1.935,2.2,2.912,4.569,2.912a6.984,6.984,0,0,0,5.285-2.323,15.089,15.089,0,0,0,3.282-6.959,12.04,12.04,0,0,0-.008-6.5c-.6-1.851-2.087-2.769-4.485-2.769a6.671,6.671,0,0,0-5.663,2.886,21.246,21.246,0,0,0-3.189,6.387Zm-8.659.311A27.019,27.019,0,0,1,133.4,68.569q4.014-4.683,13.523-4.679h.884a14.564,14.564,0,0,1,8.895,3.181q3.661,2.992,1.607,11.672c-.177.757-.412,1.557-.69,2.4a20.792,20.792,0,0,1-1.052,2.558,20.478,20.478,0,0,1-5.663,6.8q-3.812,3.067-10.7,3.063-9.151,0-11.285-4.241a15.109,15.109,0,0,1-1.321-9.391,3.243,3.243,0,0,0,.076-.412c.017-.143.05-.295.084-.454ZM103.015,64.479h26.314l-1.388,5.857h-9.189L113.4,92.931h-7.935l5.352-22.595h-9.189Zm-31.111,0h8.264l-3.955,16.7a7.675,7.675,0,0,0,.143,4.931q.858,1.906,3.921,1.91,3.585,0,5.276-1.944a11.986,11.986,0,0,0,2.457-5.167l3.9-16.426h8.264L96,82.092a15.043,15.043,0,0,1-5.352,8.466q-4.128,3.32-11.748,3.324-6.412,0-9.4-3.282a8.477,8.477,0,0,1-1.835-8.154ZM50.95,81.814,50.2,70.336,43.654,81.814ZM47.121,64.479h9.837l4.7,28.452h-9.2l-.69-5.268h-11.4l-3.139,5.268H28.65Z" transform="translate(0 -4.827)"/></g></svg>