<svg xmlns="http://www.w3.org/2000/svg" width="162.339" height="61.806" viewBox="0 0 162.339 61.806"><defs><style>.a{fill:#fff;}</style></defs><path class="a" d="M51.453,62.907a5.453,5.453,0,1,1,5.453-5.453A5.453,5.453,0,0,1,51.453,62.907Zm0-7.271a1.818,1.818,0,1,0,1.818,1.818A1.818,1.818,0,0,0,51.453,55.636Z" transform="translate(87.254 -8.372)"/><path class="a" d="M17.453,62.907a5.453,5.453,0,1,1,5.453-5.453A5.453,5.453,0,0,1,17.453,62.907Zm0-7.271a1.818,1.818,0,1,0,1.818,1.818A1.818,1.818,0,0,0,17.453,55.636Z" transform="translate(6.575 -8.372)"/><path class="a" d="M48.453,45.636H44.818a1.818,1.818,0,0,1,0-3.636h3.636a1.818,1.818,0,0,1,0,3.636Z" transform="translate(84.801 -16.55)"/><path class="a" d="M138.708,61.806a12.7,12.7,0,0,1-11.479-7.271H35.111a12.7,12.7,0,0,1-22.959,0H9.089a5.46,5.46,0,0,1-5.453-5.453V47.263H1.818A1.82,1.82,0,0,1,0,45.445V34.539a1.812,1.812,0,0,1,1.128-1.682h117.4v-.173l.181.037V1.818A1.82,1.82,0,0,1,120.53,0h18.178a20,20,0,0,1,20,20V43.627h1.817a1.82,1.82,0,0,1,1.818,1.818v3.636a5.46,5.46,0,0,1-5.453,5.453h-6.7a12.7,12.7,0,0,1-11.479,7.271Zm0-21.813a9.089,9.089,0,1,0,9.089,9.089A9.1,9.1,0,0,0,138.708,39.992Zm-115.077,0a9.089,9.089,0,1,0,9.089,9.089A9.1,9.1,0,0,0,23.631,39.992Zm127.656,7.271a11.418,11.418,0,0,1,0,3.635h5.6a1.82,1.82,0,0,0,1.818-1.817V47.263Zm-115.077,0a11.417,11.417,0,0,1,0,3.635h89.918a11.417,11.417,0,0,1,0-3.635Zm-28.94,0v1.818A1.82,1.82,0,0,0,9.089,50.9h1.963a11.419,11.419,0,0,1,0-3.635ZM138.708,36.357a12.723,12.723,0,0,1,11.479,7.271h4.881V36.357h-5.453a5.454,5.454,0,0,1,0-10.907h5.453V21.814H131.437a5.46,5.46,0,0,1-5.453-5.453V3.636h-3.636V43.627h4.881a12.723,12.723,0,0,1,11.479-7.271Zm-115.076,0h0a12.723,12.723,0,0,1,11.479,7.27h83.6V36.357H23.632Zm-20,0v7.271h8.516a12.723,12.723,0,0,1,11.479-7.271Zm145.979-7.271a1.818,1.818,0,1,0,0,3.635h5.453V29.085Zm0-16.361a1.82,1.82,0,0,1,1.818,1.818v3.635h3.528A16.373,16.373,0,0,0,138.708,3.636h-9.089V16.361a1.82,1.82,0,0,0,1.818,1.817H147.8V14.543A1.82,1.82,0,0,1,149.615,12.725Z" transform="translate(0 0)"/></svg>