<svg xmlns="http://www.w3.org/2000/svg" width="183.859" height="47.439" viewBox="0 0 183.859 47.439"><defs><style>.a{fill:#fff;}</style></defs><g transform="translate(-39.64 -28.38)"><g transform="translate(39.64 54.631)"><path class="a" d="M60.028,107.258,51.308,86.45H48.3L39.64,107.258h4.245l2.22-5.37h7.454l2.22,5.37Zm-7.848-9H47.4l2.36-6.383h.054Z" transform="translate(-39.64 -86.45)"/></g><path class="a" d="M102.423,100.182v-.407H90.2v3.241h7.843a6.144,6.144,0,0,1-5.542,3.44,6.342,6.342,0,0,1-6.076-3.946,6.667,6.667,0,0,1-.533-2.532,6.441,6.441,0,0,1,6.428-6.528,6,6,0,0,1,5.009,2.631h4.15c-1.293-3.594-5.388-5.872-9.086-5.872a9.746,9.746,0,1,0,.1,19.483c5.248,0,9.932-4.172,9.932-9.511" transform="translate(-23.441 -33.88)"/><path class="a" d="M144.447,102.944V91.05H140.98v11.894c0,2.179-.71,3.974-3.241,3.974s-3.241-1.795-3.241-3.974V91.05H131.03v11.894a7.621,7.621,0,0,0,1.166,4.53,7.01,7.01,0,0,0,5.569,2.681,6.862,6.862,0,0,0,5.592-2.785,7.727,7.727,0,0,0,1.089-4.426" transform="translate(-50.077 -34.34)"/><g transform="translate(97.584 56.71)"><rect class="a" width="3.467" height="18.729" transform="translate(0)"/></g><g transform="translate(103.031 56.71)"><path class="a" d="M198.214,109.779,190.371,91.05h-2.708l-7.793,18.729h3.82l2-4.832H192.4l2,4.832Zm-7.061-8.1h-4.3l2.125-5.746h.05Z" transform="translate(-179.87 -91.05)"/></g><path class="a" d="M238.775,101.074A5,5,0,0,0,235.2,95.9a4.251,4.251,0,0,0,2.333-3.965,5.4,5.4,0,0,0-1.772-3.879c-1.686-1.519-3.883-1.6-6.017-1.6h-4.5v20.808h5.569a9.842,9.842,0,0,0,5.37-1.239,5.861,5.861,0,0,0,2.586-4.945m-5.09-8.774c0,1.826-1.632,2.251-3.119,2.251H229.1v-4.5h1.6c1.487,0,2.979.5,2.979,2.247m1.239,8.63c0,2.251-2.052,2.726-3.883,2.726H229.1V98.145h2.025c1.8,0,3.8.678,3.8,2.785" transform="translate(-101.704 -31.819)"/><path class="a" d="M271.086,109.779,266,102.871a6.044,6.044,0,0,0,3.115-1.546,6.506,6.506,0,0,0,1.795-4.48,5.776,5.776,0,0,0-2.2-4.53,6.908,6.908,0,0,0-4.552-1.266H258.41v18.729h3.467v-7.161h.05l4.959,7.161h4.2Zm-3.648-12.653c0,1.975-1.492,2.884-3.341,2.884h-2.229V94.291H264.1c1.772,0,3.341.909,3.341,2.834" transform="translate(-119.874 -34.34)"/><g transform="translate(151.745 56.71)"><path class="a" d="M305.979,109.779,298.131,91.05h-2.708l-7.793,18.729h3.82l2-4.832h6.708l2,4.832Zm-7.061-8.1h-4.3l2.125-5.746h.05Z" transform="translate(-287.63 -91.05)"/></g><g transform="translate(170.939 56.71)"><path class="a" d="M345.3,109.779V91.05h-3.467v13.616h-.054L334.036,91.05H330.09v18.729h3.467V96.163h.05l7.821,13.616Z" transform="translate(-330.09 -91.05)"/></g><g transform="translate(187.629 56.33)"><path class="a" d="M385.535,95.928A9.6,9.6,0,0,0,376.7,90.21a9.752,9.752,0,0,0-9.692,9.669,9.867,9.867,0,0,0,9.769,9.819,9.521,9.521,0,0,0,8.657-5.592h-4.023a6.051,6.051,0,0,1-4.706,2.355,6.52,6.52,0,0,1-6.225-6.528,6.169,6.169,0,0,1,11.107-4h3.946Z" transform="translate(-367.01 -90.21)"/></g><g transform="translate(205.155 56.71)"><path class="a" d="M424.124,109.779,416.281,91.05h-2.708l-7.793,18.729h3.82l2-4.832h6.708l2,4.832Zm-7.061-8.1h-4.3l2.125-5.746h.05Z" transform="translate(-405.78 -91.05)"/></g><g transform="translate(54.015 54.631)"><path class="a" d="M78.031,86.45,73.7,90.776H71.44l2.649-4.326Z" transform="translate(-71.44 -86.45)"/></g><path class="a" d="M96.63,58.25v-.3H87.5v2.418h5.863a4.591,4.591,0,0,1-4.141,2.572,4.733,4.733,0,0,1-4.539-2.952,5.018,5.018,0,0,1-.4-1.89,4.812,4.812,0,0,1,4.8-4.878,4.5,4.5,0,0,1,3.748,1.966h3.1c-.963-2.685-4.028-4.385-6.79-4.385a7.285,7.285,0,1,0,7.486,7.45" transform="translate(-23.041 -12.285)"/><path class="a" d="M126.005,65.421l-3.8-5.162a4.546,4.546,0,0,0,2.328-1.153,4.872,4.872,0,0,0,1.343-3.345,4.322,4.322,0,0,0-1.645-3.386,5.175,5.175,0,0,0-3.4-.945H116.53v14h2.59V60.069h.036l3.707,5.352h3.142Zm-2.726-9.452c0,1.474-1.117,2.156-2.5,2.156H119.12V53.848h1.664c1.325,0,2.5.683,2.5,2.12" transform="translate(-42.132 -12.63)"/><path class="a" d="M148.292,60.312V51.42H145.7v8.887c0,1.627-.529,2.97-2.423,2.97s-2.418-1.343-2.418-2.97V51.42h-2.59v8.887a5.745,5.745,0,0,0,.868,3.386,5.23,5.23,0,0,0,4.159,2,5.14,5.14,0,0,0,4.181-2.079,5.78,5.78,0,0,0,.814-3.3" transform="translate(-54.044 -12.625)"/><path class="a" d="M172.836,55.751a4.023,4.023,0,0,0-1.325-3.214,5.248,5.248,0,0,0-3.933-1.117H163.89v14h2.59V60.081h1.1a5.243,5.243,0,0,0,3.933-1.117,4.011,4.011,0,0,0,1.325-3.214m-2.59,0c0,1.722-1.587,1.912-2.929,1.912h-.832v-3.82h.927c1.343,0,2.834.208,2.834,1.908" transform="translate(-68.082 -12.625)"/><path class="a" d="M198.477,58.119a7.319,7.319,0,1,0-7.319,7.242,7.3,7.3,0,0,0,7.319-7.242m-2.595-.018a4.731,4.731,0,1,1-4.728-4.878,4.8,4.8,0,0,1,4.728,4.878" transform="translate(-79.014 -12.285)"/><g transform="translate(138.504 28.38)"><path class="a" d="M258.34,28.38h32.385l.045,24.076c-2.016,2.233-9.674,2.265-12.716-.927-2.238-2.346-2.057-6.844,1.668-7.789,3.323-.841,5.208-.045,4.828,1.374,3.9-2.432,1.356-8.151-5.945-7.274l-3.671,1.325-2.477-1.126,6.012-.353c-.059-2.568-1.361-3.648-5.33-3.567-6.342.127-11.975,5.511-14.8,3.192Z" transform="translate(-258.34 -28.38)"/></g></g></svg>