<svg xmlns="http://www.w3.org/2000/svg" width="20.339" height="20.339" viewBox="0 0 20.339 20.339"><defs><style>.a{fill:#cdcfce;stroke:#cdcfce;}</style></defs><g transform="translate(0.5 0.5)"><path class="a" d="M8.516,0a8.516,8.516,0,1,0,8.516,8.516A8.526,8.526,0,0,0,8.516,0Zm0,15.461a6.944,6.944,0,1,1,6.944-6.944A6.952,6.952,0,0,1,8.516,15.461Z"/><g transform="translate(13.259 13.259)"><path class="a" d="M356.895,355.783l-4.507-4.507a.786.786,0,1,0-1.112,1.112l4.507,4.507a.786.786,0,0,0,1.112-1.112Z" transform="translate(-351.046 -351.046)"/></g></g></svg>