<svg xmlns="http://www.w3.org/2000/svg" width="90.048" height="76.977" viewBox="0 0 90.048 76.977"><defs><style>.a{fill:#cdcfce;}</style></defs><g transform="translate(-1 -10)"><path class="a" d="M50.81,60.619A5.81,5.81,0,1,0,45,54.81,5.815,5.815,0,0,0,50.81,60.619Zm0-8.714a2.9,2.9,0,1,1-2.9,2.9A2.908,2.908,0,0,1,50.81,51.9Z" transform="translate(19.905 17.643)"/><path class="a" d="M85.164,73.905h2.979a2.908,2.908,0,0,0,2.9-2.9,18.732,18.732,0,0,0-2.9-10.016V55.024A10.179,10.179,0,0,0,77.977,44.857V36.143h5.81V27.429h-5.81a8.723,8.723,0,0,0-8.714,8.714v8.714H68.9L63.753,26.824a2.89,2.89,0,0,0,1.152-2.3v-2.9a2.908,2.908,0,0,0-2.9-2.9H35.857a2.908,2.908,0,0,0-2.9,2.9v2.9a2.89,2.89,0,0,0,1.152,2.3L30.386,39.836l-6.662-4.664a8.968,8.968,0,0,0,6.324-8.592V15.81a2.908,2.908,0,0,0-2.9-2.9H9.16L7.707,10H3.9A2.908,2.908,0,0,0,1,12.9V26.58a9.047,9.047,0,0,0,6.852,8.778l1.862.465v2.8a2.909,2.909,0,0,0,.455,1.56l9.712,15.263V58.6a14.5,14.5,0,0,0-4.319,25.472H1v2.9H44.572v-2.9H32.915a14.515,14.515,0,0,0,5.773-10.167H56.263a14.5,14.5,0,0,0,5.773,10.167H56.191v2.9H91.048v-2.9H79.391a14.5,14.5,0,0,0,5.773-10.167Zm-13-37.762a5.815,5.815,0,0,1,5.81-5.81h2.9v2.9h-2.9a2.908,2.908,0,0,0-2.9,2.9v8.714h-2.9Zm-2.9,11.619h8.714a7.27,7.27,0,0,1,7.262,7.262v2.383a18.8,18.8,0,0,0-13.071-5.288h-2.9ZM51.3,65.191H48.929v-2.9h3.6A18.7,18.7,0,0,0,51.3,65.191ZM45,45.884l2.054-2.054-4.357-4.357L40.64,41.527l1.152,1.152-2.179,2.179h-1.83l4.98-17.429H55.1l5.81,20.333H43.721L42.268,46.31l1.577-1.577ZM39.741,27.429l-4.98,17.429H31.972l4.98-17.429Zm21.164,0,5.452,19.083v1.251H63.925l-5.81-20.333Zm-6.5,31.953H48.929v-2.9h5.81v2.476C54.624,59.091,54.522,59.24,54.41,59.381Zm.328-8.714v2.9h-5.81v-2.9Zm2.9,0h8.714v1.7a18.779,18.779,0,0,0-8.714,3.782ZM35.857,21.619H62v2.9H35.857ZM5.912,12.9l1.452,2.9H27.143v2.9H7.364l-1.452,2.9H3.9V12.9Zm4.653,17.429a2.921,2.921,0,0,0-.851,2.054v.443l-1.156-.289A6.144,6.144,0,0,1,3.9,26.58V24.524h3.8l1.452-2.9H27.143V26.58a6.144,6.144,0,0,1-4.653,5.962l-1.859.465-.976-.683-.717-2.151A4.009,4.009,0,0,0,12.3,28.605Zm2.054,2.054,1.73-1.728a1.146,1.146,0,0,1,1.833.433L17.2,34.153l12.341,8.639-.69,2.415a7.2,7.2,0,0,0-2.693,1.56L22,40.961a4.594,4.594,0,0,0-3.725-1.913,4.547,4.547,0,0,0-3.24,1.343l-.789.787-1.625-2.553Zm8.812,20.084L19.8,49.9l2.935-2.934L24.4,49.293c-.019.045-.045.086-.064.131l-1.079,2.7h-.469a2.871,2.871,0,0,0-1.355.351ZM18.2,47.392l-2.356-3.7,1.245-1.243a1.741,1.741,0,0,1,2.552.209l1.377,1.922ZM33.406,79.566l-1.978-1.98-2.054,2.054,1.978,1.978a11.551,11.551,0,0,1-5.661,2.351v-2.8h-2.9v2.8a11.551,11.551,0,0,1-5.661-2.351L19.1,79.642l-2.054-2.054-1.978,1.98a11.551,11.551,0,0,1-2.351-5.661h2.8V71h-2.8a11.551,11.551,0,0,1,2.351-5.661l1.978,1.98L19.1,65.266l-1.978-1.978a11.551,11.551,0,0,1,5.661-2.351v2.8h2.9v-2.8a11.551,11.551,0,0,1,5.661,2.351l-1.978,1.978,2.054,2.054,1.978-1.98A11.551,11.551,0,0,1,35.757,71h-2.8v2.9h2.8a11.55,11.55,0,0,1-2.351,5.663ZM38.688,71a14.509,14.509,0,0,0-15.9-13V55.024h2.9A16,16,0,0,1,41.668,71ZM26.37,52.154l.661-1.653a4.334,4.334,0,0,1,4.045-2.739h8.537l2.9,2.9h3.506V71H44.572a18.888,18.888,0,0,0-18.2-18.846ZM48.929,71V68.1h1.7a18.962,18.962,0,0,0-.247,2.9ZM69.262,55.024h2.9A16,16,0,0,1,88.143,71H85.164a14.522,14.522,0,0,0-28.9,0H53.286A16,16,0,0,1,69.262,55.024ZM59.2,71a11.551,11.551,0,0,1,2.351-5.661l1.978,1.98,2.054-2.054L63.6,63.287a11.551,11.551,0,0,1,5.661-2.351v2.8h2.9v-2.8a11.551,11.551,0,0,1,5.661,2.351L75.85,65.263,77.9,67.317l1.978-1.98A11.551,11.551,0,0,1,82.233,71h-2.8v2.9h2.8a11.551,11.551,0,0,1-2.351,5.661L77.9,77.585,75.85,79.639l1.978,1.978a11.551,11.551,0,0,1-5.661,2.351v-2.8h-2.9v2.8A11.551,11.551,0,0,1,63.6,81.62l1.978-1.978-2.054-2.054-1.978,1.98A11.551,11.551,0,0,1,59.2,73.906H62V71H59.2Z" transform="translate(0 0)"/><path class="a" d="M18.81,49a5.81,5.81,0,1,0,5.81,5.81A5.815,5.815,0,0,0,18.81,49Zm0,8.714a2.9,2.9,0,1,1,2.9-2.9A2.908,2.908,0,0,1,18.81,57.714Z" transform="translate(5.429 17.643)"/><path class="a" d="M33,61h5.81v2.9H33Z" transform="translate(14.476 23.072)"/></g></svg>