<svg xmlns="http://www.w3.org/2000/svg" width="104.437" height="55.383" viewBox="0 0 104.437 55.383"><defs><style>.a{fill:#fff;}</style></defs><g transform="translate(17.995 45.783)"><g transform="translate(0 0)"><path class="a" d="M89.756,344.692h-.017a1.538,1.538,0,1,0,.017,0Z" transform="translate(-88.218 -344.692)"/></g></g><g transform="translate(31.076 45.783)"><g transform="translate(0 0)"><path class="a" d="M153.885,344.692h-.016a1.538,1.538,0,1,0,.016,0Z" transform="translate(-152.347 -344.692)"/></g></g><g transform="translate(85.035 45.783)"><g transform="translate(0 0)"><path class="a" d="M418.417,344.692H418.4a1.538,1.538,0,1,0,.016,0Z" transform="translate(-416.879 -344.692)"/></g></g><g transform="translate(0 0)"><path class="a" d="M103.032,147.532l-2.057-2.057-4.144-12.432a1.53,1.53,0,0,0-.463-2.988H81.546V123.41a3.168,3.168,0,0,0-3.165-3.165H3.165A3.169,3.169,0,0,0,0,123.41v35.973a3.168,3.168,0,0,0,3.165,3.165h1.74v3.375a3.168,3.168,0,0,0,3.165,3.165h3.523a8.065,8.065,0,0,0,14.463,3.189,8.065,8.065,0,0,0,14.464-3.189H78.633a8.07,8.07,0,0,0,15.993-1.53c0-.035,0-.07,0-.1h6.648a3.168,3.168,0,0,0,3.165-3.165V150.926A4.767,4.767,0,0,0,103.032,147.532Zm-91.438,18.5H8.07a.105.105,0,0,1-.105-.105v-3.375H13.2A8.039,8.039,0,0,0,11.593,166.028Zm7.923,6.541a5.01,5.01,0,0,1-.031-10.02h.063a5.01,5.01,0,0,1-.032,10.02Zm13.081,0a5.01,5.01,0,0,1-.031-10.02h.063a5.01,5.01,0,0,1-.031,10.02Zm46.036-6.541H40.52a8.038,8.038,0,0,0-1.6-3.48H68.57a1.53,1.53,0,0,0,0-3.06H3.165a.105.105,0,0,1-.105-.105V123.41a.105.105,0,0,1,.105-.105H78.381a.105.105,0,0,1,.105.105v36.078H75.111a1.53,1.53,0,0,0,0,3.06h5.125A8.036,8.036,0,0,0,78.634,166.028ZM98.06,146.406H88.192a.105.105,0,0,1-.105-.105v-6.646H95.81Zm-11.5,26.162a5.01,5.01,0,0,1-.031-10.02h.042a5.011,5.011,0,0,1-.011,10.021Zm14.821-8.28a.105.105,0,0,1-.105.105H93.98a8.082,8.082,0,0,0-7.423-4.906H81.546V133.221h0a.105.105,0,0,1,.105-.105H93.629l1.16,3.481H86.556a1.53,1.53,0,0,0-1.53,1.53V146.3a3.168,3.168,0,0,0,3.165,3.165h12.447l.229.229a1.73,1.73,0,0,1,.51,1.231v3.657h-1.74a1.53,1.53,0,1,0,0,3.06h1.74Z" transform="translate(0 -120.245)"/></g><g transform="translate(6.54 32.702)"><path class="a" d="M99,280.567H33.594a1.53,1.53,0,0,0,0,3.06H99a1.53,1.53,0,0,0,0-3.06Z" transform="translate(-32.064 -280.567)"/></g></svg>