<svg xmlns="http://www.w3.org/2000/svg" width="110.673" height="58.774" viewBox="0 0 110.673 58.774"><defs><style>.a{fill:#cdcfce;}</style></defs><g transform="translate(0 0)"><g transform="translate(107.215 17.294)"><path class="a" d="M63.733,50.931A1.727,1.727,0,0,1,62,49.2V26.735a1.729,1.729,0,0,1,3.458,0V49.2a1.727,1.727,0,0,1-1.729,1.729Z" transform="translate(-62.004 -25.006)"/></g><g transform="translate(98.568 0)"><path class="a" d="M67.381,35.756a1.728,1.728,0,0,1-1.549-.956L57.186,17.506a1.729,1.729,0,1,1,3.093-1.547l8.645,17.294a1.73,1.73,0,0,1-1.544,2.5Z" transform="translate(-57.003 -15.004)"/></g><g transform="translate(88.202 34.571)"><path class="a" d="M71.75,38.456H52.737a1.729,1.729,0,1,1,0-3.458H71.75a1.729,1.729,0,0,1,0,3.458Z" transform="translate(-51.008 -34.998)"/></g><g transform="translate(97.191 39.761)"><path class="a" d="M67.959,41.458H57.936a1.729,1.729,0,1,1,0-3.458H67.959a1.729,1.729,0,0,1,0,3.458Z" transform="translate(-56.207 -38)"/></g><g transform="translate(0 34.571)"><path class="a" d="M79.556,38.456H1.725a1.729,1.729,0,0,1,0-3.458H79.556a1.729,1.729,0,0,1,0,3.458Z" transform="translate(0.004 -34.998)"/></g><g transform="translate(77.828 0)"><path class="a" d="M67.479,18.462H46.737a1.729,1.729,0,0,1,0-3.458H67.479a1.729,1.729,0,1,1,0,3.458Z" transform="translate(-45.008 -15.004)"/></g><g transform="translate(77.828)"><path class="a" d="M46.741,61.674a1.729,1.729,0,0,1-1.729-1.729l0-43.212a1.729,1.729,0,1,1,3.458,0l0,43.212A1.729,1.729,0,0,1,46.741,61.674Z" transform="translate(-45.008 -15.004)"/></g><g transform="translate(84.748 6.92)"><path class="a" d="M64.6,32.838a.115.115,0,0,1-.035,0H50.739a1.727,1.727,0,0,1-1.729-1.729V20.735a1.727,1.727,0,0,1,1.729-1.729h8.635a1.731,1.731,0,0,1,1.548.956l5.051,10.1a1.729,1.729,0,0,1-1.375,2.78ZM52.468,29.38h9.3l-3.462-6.916H52.468Z" transform="translate(-49.01 -19.006)"/></g><g transform="translate(77.828 34.567)"><path class="a" d="M57.111,59.2a12.1,12.1,0,1,1,12.1-12.1A12.119,12.119,0,0,1,57.111,59.2Zm0-20.749A8.645,8.645,0,1,0,65.757,47.1,8.655,8.655,0,0,0,57.111,38.454Z" transform="translate(-45.008 -34.996)"/></g><g transform="translate(29.411 34.567)"><path class="a" d="M29.109,59.2a12.1,12.1,0,1,1,12.1-12.1A12.119,12.119,0,0,1,29.109,59.2Zm0-20.749A8.645,8.645,0,1,0,37.755,47.1,8.655,8.655,0,0,0,29.109,38.454Z" transform="translate(-17.006 -34.996)"/></g><g transform="translate(5.215 34.567)"><path class="a" d="M15.115,59.2a12.1,12.1,0,1,1,12.1-12.1,12.119,12.119,0,0,1-12.1,12.1Zm0-20.749A8.645,8.645,0,1,0,23.761,47.1,8.655,8.655,0,0,0,15.115,38.454Z" transform="translate(-3.012 -34.996)"/></g><g transform="translate(12.131 41.483)"><path class="a" d="M12.2,49.37a5.187,5.187,0,1,1,5.187-5.187A5.193,5.193,0,0,1,12.2,49.37Zm0-6.916a1.729,1.729,0,1,0,1.729,1.729A1.73,1.73,0,0,0,12.2,42.454Z" transform="translate(-7.012 -38.996)"/></g><g transform="translate(36.327 41.483)"><path class="a" d="M26.193,49.37a5.187,5.187,0,1,1,5.187-5.187A5.193,5.193,0,0,1,26.193,49.37Zm0-6.916a1.729,1.729,0,1,0,1.729,1.729A1.73,1.73,0,0,0,26.193,42.454Z" transform="translate(-21.006 -38.996)"/></g><g transform="translate(84.741 41.483)"><path class="a" d="M54.193,49.37a5.187,5.187,0,1,1,5.187-5.187A5.193,5.193,0,0,1,54.193,49.37Zm0-6.916a1.729,1.729,0,1,0,1.729,1.729A1.73,1.73,0,0,0,54.193,42.454Z" transform="translate(-49.006 -38.996)"/></g><g transform="translate(25.832 43.212)"><path class="a" d="M20.389,43.454H16.665a1.729,1.729,0,1,1,0-3.458h3.724a1.729,1.729,0,1,1,0,3.458Z" transform="translate(-14.936 -39.996)"/></g><g transform="translate(50.014 43.212)"><path class="a" d="M58.468,43.454H30.651a1.729,1.729,0,1,1,0-3.458H58.468a1.729,1.729,0,0,1,0,3.458Z" transform="translate(-28.922 -39.996)"/></g><g transform="translate(1.729 43.212)"><path class="a" d="M6.356,43.454H2.725a1.729,1.729,0,1,1,0-3.458H6.356a1.729,1.729,0,1,1,0,3.458Z" transform="translate(-0.996 -39.996)"/></g><g transform="translate(1.729 34.571)"><path class="a" d="M2.725,47.1A1.727,1.727,0,0,1,1,45.369V36.727a1.729,1.729,0,0,1,3.458,0v8.642A1.727,1.727,0,0,1,2.725,47.1Z" transform="translate(-0.996 -34.998)"/></g><g transform="translate(84.737 22.478)"><path class="a" d="M52.462,31.462H50.733a1.729,1.729,0,1,1,0-3.458h1.729a1.729,1.729,0,1,1,0,3.458Z" transform="translate(-49.004 -28.004)"/></g></g><g transform="translate(66.261 13.534)"><path class="a" d="M44.674,31.768a1.727,1.727,0,0,1-1.729-1.729,3.807,3.807,0,0,0-3.183-3.773,1.729,1.729,0,1,1,.571-3.41A7.255,7.255,0,0,1,46.4,30.039a1.727,1.727,0,0,1-1.729,1.729Z" transform="translate(-38.318 -22.831)"/></g><g transform="translate(70.887 19.013)"><path class="a" d="M42.723,32.916a1.727,1.727,0,0,1-1.729-1.729V27.729a1.729,1.729,0,1,1,3.458,0v3.458A1.727,1.727,0,0,1,42.723,32.916Z" transform="translate(-40.994 -26)"/></g><g transform="translate(70.887 22.471)"><path class="a" d="M44.466,36.645a1.729,1.729,0,0,1-1.729-1.724l-.021-3.463A1.729,1.729,0,0,1,42.723,28h.007l1.729.007a1.727,1.727,0,0,1,1.722,1.724l.014,5.18a1.729,1.729,0,0,1-1.724,1.734h-.005Z" transform="translate(-40.994 -28)"/></g><g transform="translate(3.468 24.41)"><path class="a" d="M7.176,35.828a1.731,1.731,0,0,1-1.188-.47L2.544,32.108a1.73,1.73,0,0,1,2.374-2.516l3.444,3.249a1.728,1.728,0,0,1-1.186,2.986Z" transform="translate(-2.002 -29.122)"/></g><g transform="translate(3.468 12.093)"><path class="a" d="M3.731,37.772A1.729,1.729,0,0,1,2,36.041l.017-12.316A1.729,1.729,0,0,1,3.748,22h0a1.729,1.729,0,0,1,1.727,1.731L5.46,36.045a1.729,1.729,0,0,1-1.729,1.727Z" transform="translate(-2.002 -21.998)"/></g><g transform="translate(3.486 12.093)"><path class="a" d="M10.626,25.456H3.741a1.729,1.729,0,1,1,0-3.458h6.885a1.729,1.729,0,1,1,0,3.458Z" transform="translate(-2.012 -21.998)"/></g><g transform="translate(10.373 3.451)"><path class="a" d="M50.948,29.1a1.725,1.725,0,0,1-1.205-.488c-.085-.081-8.543-8.154-20.444-8.154S9.017,28.524,8.934,28.605a1.729,1.729,0,0,1-2.422-2.467C6.889,25.765,15.949,17,29.3,17s22.476,8.761,22.858,9.135A1.728,1.728,0,0,1,50.948,29.1Z" transform="translate(-5.995 -17)"/></g><g transform="translate(53.598 12.097)"><path class="a" d="M45.391,26.9a1.5,1.5,0,0,1-.2-.012L32.529,25.448a1.728,1.728,0,1,1,.387-3.434l12.667,1.437a1.728,1.728,0,0,1-.192,3.446Z" transform="translate(-30.995 -22)"/></g><g transform="translate(32.848 12.095)"><path class="a" d="M20.723,25.459a1.729,1.729,0,1,1,0-3.458l20.749,0a1.729,1.729,0,0,1,0,3.458Z" transform="translate(-18.994 -21.999)"/></g><g transform="translate(17.709 7.041)"><path class="a" d="M27.106,27.59a1.722,1.722,0,0,1-.546-.09l-15.14-5.054a1.729,1.729,0,1,1,1.094-3.28l15.14,5.054a1.73,1.73,0,0,1-.548,3.37Z" transform="translate(-10.238 -19.076)"/></g><g transform="translate(5.498 6.907)"><path class="a" d="M6.928,27.651a1.729,1.729,0,0,1-1.611-1.1L3.294,21.358A1.729,1.729,0,1,1,6.515,20.1l2.023,5.192a1.73,1.73,0,0,1-.982,2.239,1.705,1.705,0,0,1-.628.119Z" transform="translate(-3.176 -18.999)"/></g><g transform="translate(12.1 20.742)"><path class="a" d="M15.643,44.29a8.645,8.645,0,1,1,8.642-8.645A8.657,8.657,0,0,1,15.643,44.29Zm0-13.832a5.187,5.187,0,1,0,5.184,5.187A5.2,5.2,0,0,0,15.643,30.458Z" transform="translate(-6.994 -27)"/></g><g transform="translate(6.913 27.658)"><path class="a" d="M10.912,34.458H5.723a1.729,1.729,0,1,1,0-3.458h5.189a1.729,1.729,0,1,1,0,3.458Z" transform="translate(-3.994 -31)"/></g><g transform="translate(63.971 27.658)"><path class="a" d="M47.382,34.458H38.723a1.729,1.729,0,1,1,0-3.458h8.659a1.729,1.729,0,0,1,0,3.458Z" transform="translate(-36.994 -31)"/></g><g transform="translate(3.472 6.909)"><path class="a" d="M8.1,22.458H3.733a1.729,1.729,0,1,1,0-3.458H8.1a1.729,1.729,0,1,1,0,3.458Z" transform="translate(-2.004 -19)"/></g><g transform="translate(19.059 27.658)"><path class="a" d="M12.757,34.458A1.729,1.729,0,0,1,12.738,31h.019a1.729,1.729,0,1,1,0,3.458Z" transform="translate(-11.019 -31)"/></g><g transform="translate(50.139 20.742)"><path class="a" d="M37.643,44.29a8.645,8.645,0,1,1,8.642-8.645A8.657,8.657,0,0,1,37.643,44.29Zm0-13.832a5.187,5.187,0,1,0,5.184,5.187A5.2,5.2,0,0,0,37.643,30.458Z" transform="translate(-28.994 -27)"/></g><g transform="translate(57.098 27.658)"><path class="a" d="M34.757,34.458A1.729,1.729,0,0,1,34.738,31h.019a1.729,1.729,0,1,1,0,3.458Z" transform="translate(-33.019 -31)"/></g><g transform="translate(25.932 27.658)"><path class="a" d="M40.93,34.458H16.723a1.729,1.729,0,1,1,0-3.458H40.93a1.729,1.729,0,1,1,0,3.458Z" transform="translate(-14.994 -31)"/></g><g transform="translate(32.848 3.467)"><path class="a" d="M20.723,29.1a1.727,1.727,0,0,1-1.729-1.729v-8.63a1.729,1.729,0,1,1,3.458,0v8.63A1.727,1.727,0,0,1,20.723,29.1Z" transform="translate(-18.994 -17.009)"/></g></svg>