<svg xmlns="http://www.w3.org/2000/svg" width="18.793" height="18.793" viewBox="0 0 18.793 18.793"><defs><style>.a{fill:#cdcfce;}</style></defs><path class="a" d="M16.04,2.752A9.4,9.4,0,0,0,2.752,16.041,9.4,9.4,0,0,0,16.04,2.752ZM4.71,16.238a4.758,4.758,0,0,1,9.371,0,8.277,8.277,0,0,1-9.371,0Zm1.7-8.021A2.988,2.988,0,1,1,9.4,11.2,2.991,2.991,0,0,1,6.408,8.217Zm8.627,7.257a5.868,5.868,0,0,0-3.412-3.83,4.089,4.089,0,1,0-4.456,0,5.867,5.867,0,0,0-3.411,3.83,8.3,8.3,0,1,1,11.279,0Zm0,0" transform="translate(0)"/></svg>