<svg xmlns="http://www.w3.org/2000/svg" width="97.921" height="57.191" viewBox="0 0 97.921 57.191"><defs><style>.a{fill:#cdcfce;}</style></defs><path class="a" d="M151.135,155.883H154.9a1.429,1.429,0,1,1,0,2.858h-3.764a1.429,1.429,0,0,1,0-2.858Zm0,0" transform="translate(-87.039 -126.07)"/><path class="a" d="M12.779,0H77.6a5.966,5.966,0,0,1,5.374,3.331L93.519,24.567a6.992,6.992,0,0,1,.727,3.1v.753a5.056,5.056,0,0,1,3.675,4.857V39.56a5.057,5.057,0,0,1-3.675,4.857v1.652a3.719,3.719,0,0,1-3.715,3.714H82.454a9.024,9.024,0,0,1-17.756,0H28.024a9.024,9.024,0,0,1-17.757,0H3.715A3.719,3.719,0,0,1,0,46.069V12.779A12.793,12.793,0,0,1,12.779,0ZM94.246,41.265a2.19,2.19,0,0,0,.817-1.7V33.273a2.187,2.187,0,0,0-.817-1.7ZM73.576,54.334a6.169,6.169,0,1,0-6.169-6.169A6.176,6.176,0,0,0,73.576,54.334Zm-54.43,0a6.169,6.169,0,1,0-6.169-6.169A6.176,6.176,0,0,0,19.146,54.334ZM2.858,23.2h9.9a1.429,1.429,0,0,1,0,2.858h-9.9V46.069a.858.858,0,0,0,.858.857h6.491a9.025,9.025,0,0,1,17.879,0H64.636a9.025,9.025,0,0,1,17.879,0h8.015a.858.858,0,0,0,.858-.857V27.664a4.134,4.134,0,0,0-.326-1.6H82.6v2.419a3.286,3.286,0,0,1-2.386,3.178,7.041,7.041,0,0,1-8.8-5.6H19.459a1.429,1.429,0,1,1,0-2.858H71.516a7.038,7.038,0,0,1,8.615-5.147,3.291,3.291,0,0,1,1.538.9h.539l-3.565-7.338H65.534v7.338h1.35a1.429,1.429,0,1,1,0,2.858H65.249a2.575,2.575,0,0,1-2.572-2.571v-7.91a2.575,2.575,0,0,1,2.572-2.571H78.821a2.588,2.588,0,0,1,2.314,1.448l3.842,7.909a2.571,2.571,0,0,1-2.313,3.7H82.6V23.2h7.049L80.415,4.6A3.124,3.124,0,0,0,77.6,2.858H12.779A9.933,9.933,0,0,0,2.857,12.78ZM79.745,28.48V21.259a.453.453,0,0,0-.336-.439,4.21,4.21,0,0,0-1.057-.134h-.1A4.183,4.183,0,1,0,79.46,28.9a.43.43,0,0,0,.285-.423Zm0,0" transform="translate(0)"/><path class="a" d="M195.392,45.809h19.241a2.575,2.575,0,0,1,2.572,2.572V56.29a2.575,2.575,0,0,1-2.572,2.571H195.392a2.574,2.574,0,0,1-2.571-2.571V48.381a2.574,2.574,0,0,1,2.571-2.572Zm.285,10.2h18.67V48.666h-18.67Zm0,0" transform="translate(-156.162 -37.048)"/><path class="a" d="M335.737,45.809h14.939a2.575,2.575,0,0,1,2.571,2.572V56.29a2.574,2.574,0,0,1-2.571,2.571H331.435a2.574,2.574,0,0,1-2.571-2.571V52.683a6.882,6.882,0,0,1,6.874-6.875ZM331.721,56H350.39V48.666H335.737a4.021,4.021,0,0,0-4.016,4.017Zm0,0" transform="translate(-318.223 -37.048)"/><path class="a" d="M116.168,242.843a2.127,2.127,0,1,0,2.127-2.128A2.127,2.127,0,0,0,116.168,242.843Zm0,0" transform="translate(-44.719 -194.678)"/><path class="a" d="M400.77,242.843a2.127,2.127,0,1,0,2.128-2.128A2.127,2.127,0,0,0,400.77,242.843Zm0,0" transform="translate(-383.751 -194.678)"/></svg>