<svg xmlns="http://www.w3.org/2000/svg" width="91.475" height="91.476" viewBox="0 0 91.475 91.476"><defs><style>.a{fill:#cdcfce;}</style></defs><g transform="translate(-4.75 -4.75)"><path class="a" d="M6.1,82.329a10.832,10.832,0,0,1,6.678,2.109A13.547,13.547,0,0,0,20.9,86.96c.224,0,.448,0,.591-.016a13.476,13.476,0,0,0,7.522-2.507,14.376,14.376,0,0,1,3-1.557,11.167,11.167,0,0,1,3.681-.551,10.823,10.823,0,0,1,6.678,2.11,14.319,14.319,0,0,0,16.232,0,10.833,10.833,0,0,1,6.678-2.109,11.039,11.039,0,0,1,3.688.559,14.407,14.407,0,0,1,2.984,1.549A13.586,13.586,0,0,0,78.664,86.9c.418.041.881.06,1.413.06a13.535,13.535,0,0,0,8.111-2.521,10.843,10.843,0,0,1,6.686-2.11,1.351,1.351,0,1,0,0-2.7,13.547,13.547,0,0,0-8.12,2.523,10.832,10.832,0,0,1-6.678,2.109c-.444,0-.82-.016-1.173-.049a10.9,10.9,0,0,1-5.522-2.062c-.618-.386-1.264-.78-1.976-1.141A76.157,76.157,0,0,0,81.959,54.465l1.843.475a1.352,1.352,0,0,0,1.645-.971L86.6,49.482a1.35,1.35,0,0,0-.971-1.645l-8.561-2.2L73.831,23.3a1.35,1.35,0,0,0-1.336-1.158H70.364v-5.6a1.35,1.35,0,0,0-1.351-1.351h-.559l-1.68-3.776a1.352,1.352,0,0,0-1.235-.8h-3.12V6.1A1.35,1.35,0,0,0,61.068,4.75H54.121A1.35,1.35,0,0,0,52.77,6.1v4.516H48.2V6.1A1.351,1.351,0,0,0,46.853,4.75H39.905A1.35,1.35,0,0,0,38.554,6.1v4.516h-3.12a1.352,1.352,0,0,0-1.235.8l-1.68,3.776H31.96a1.351,1.351,0,0,0-1.351,1.351v5.6H28.487A1.351,1.351,0,0,0,27.15,23.3L23.908,45.634l-8.564,2.2a1.352,1.352,0,0,0-.971,1.647l1.158,4.486a1.352,1.352,0,0,0,1.645.971l1.843-.475A75.958,75.958,0,0,0,29.568,81c-.718.364-1.366.758-1.99,1.149a10.85,10.85,0,0,1-6.246,2.1c-.11.01-.222.011-.337.011a10.927,10.927,0,0,1-6.784-2.11A13.533,13.533,0,0,0,6.1,79.627a1.351,1.351,0,1,0,0,2.7ZM55.472,7.452h4.246v3.165H55.472Zm-14.216,0H45.5v3.165H41.256Zm-4.944,5.867h28.35l.835,1.876H35.477Zm-3,4.578H67.662v4.246H33.311Zm-3.656,6.947H71.318L74.232,44.9,50.824,38.875a1.349,1.349,0,0,0-.675,0L26.741,44.9ZM17.326,50.117l33.161-8.539,33.161,8.539-.482,1.868L50.822,43.658H50.8a1.255,1.255,0,0,0-.624,0h-.025L17.8,51.985Zm31.81-3.409V63.417a1.351,1.351,0,0,0,2.7,0V46.708l27.5,7.08A73.509,73.509,0,0,1,68.822,80.029a14.589,14.589,0,0,0-3.545-.4,13.537,13.537,0,0,0-8.111,2.521,10.842,10.842,0,0,1-6.686,2.11,10.825,10.825,0,0,1-6.678-2.11,13.528,13.528,0,0,0-8.112-2.522,14.7,14.7,0,0,0-3.535.4A73.293,73.293,0,0,1,21.639,53.788Z" transform="translate(0 0)"/><path class="a" d="M94.873,113.749a13.542,13.542,0,0,0-8.116,2.522,11.636,11.636,0,0,1-13.364,0,14.319,14.319,0,0,0-16.231,0,10.832,10.832,0,0,1-6.681,2.11,10.833,10.833,0,0,1-6.681-2.11,13.533,13.533,0,0,0-8.115-2.522,13.528,13.528,0,0,0-8.112,2.522,10.823,10.823,0,0,1-6.678,2.11,10.831,10.831,0,0,1-6.68-2.11A13.532,13.532,0,0,0,6.1,113.749a1.351,1.351,0,0,0,0,2.7,10.829,10.829,0,0,1,6.68,2.11,13.532,13.532,0,0,0,8.114,2.522,13.528,13.528,0,0,0,8.112-2.522,10.825,10.825,0,0,1,6.678-2.11,10.832,10.832,0,0,1,6.681,2.11,14.317,14.317,0,0,0,16.23,0,11.635,11.635,0,0,1,13.363,0,14.321,14.321,0,0,0,16.232,0,10.834,10.834,0,0,1,6.682-2.11,1.351,1.351,0,0,0,0-2.7Z" transform="translate(0 -24.859)"/><path class="a" d="M89.93,87.183a1.348,1.348,0,0,0,1.786-.675c.665-1.471,1.281-2.967,1.833-4.446a1.351,1.351,0,1,0-2.532-.944c-.53,1.423-1.123,2.863-1.762,4.28A1.35,1.35,0,0,0,89.93,87.183Z" transform="translate(-19.246 -17.217)"/><path class="a" d="M67.4,39.257V34.626a1.351,1.351,0,0,0-1.351-1.351H59.1a1.352,1.352,0,0,0-1.351,1.351v4.632A1.351,1.351,0,0,0,59.1,40.608h6.947A1.35,1.35,0,0,0,67.4,39.257Zm-2.7-1.351H60.452v-1.93H64.7Z" transform="translate(-12.088 -6.506)"/><path class="a" d="M77.91,40.608h6.947a1.351,1.351,0,0,0,1.351-1.351V34.626a1.352,1.352,0,0,0-1.351-1.351H77.91a1.351,1.351,0,0,0-1.351,1.351v4.632a1.35,1.35,0,0,0,1.351,1.351Zm1.351-4.632h4.246v1.93H79.261Z" transform="translate(-16.378 -6.506)"/><path class="a" d="M47.239,33.275H40.292a1.352,1.352,0,0,0-1.351,1.351v4.632a1.351,1.351,0,0,0,1.351,1.351h6.947a1.35,1.35,0,0,0,1.351-1.351V34.626a1.351,1.351,0,0,0-1.351-1.351Zm-1.351,4.632H41.643v-1.93h4.246Z" transform="translate(-7.798 -6.506)"/></g></svg>